<?xml version="1.0" standalone="no"?>
<!DOCTYPE svg PUBLIC "-//W3C//DTD SVG 20010904//EN"
 "http://www.w3.org/TR/2001/REC-SVG-20010904/DTD/svg10.dtd">
<svg version="1.0" xmlns="http://www.w3.org/2000/svg"
 width="902.000000pt" height="1024.000000pt" viewBox="0 0 902.000000 1024.000000"
 preserveAspectRatio="xMidYMid meet">

<g transform="translate(0.000000,1024.000000) scale(0.100000,-0.100000)"
fill="#000000" stroke="none">
<path d="M4395 10233 c-330 -39 -543 -110 -770 -258 -235 -152 -395 -356 -472
-601 l-28 -89 0 -4165 0 -4165 28 -88 c112 -357 412 -635 837 -776 746 -246
1615 44 1896 634 24 50 53 129 66 175 l22 85 3 1509 c3 1405 3 1510 -13 1527
-16 18 -42 19 -544 19 -496 0 -528 -1 -543 -18 -15 -17 -17 -142 -19 -1503
l-3 -1484 -23 -42 c-35 -67 -79 -110 -144 -143 -51 -25 -73 -30 -133 -30 -39
0 -92 7 -118 16 -64 22 -140 92 -174 162 l-28 57 0 4055 0 4055 21 46 c73 157
248 229 409 168 74 -28 146 -100 174 -174 21 -56 21 -60 21 -1495 0 -1294 2
-1440 16 -1454 14 -14 77 -16 544 -16 472 0 530 2 545 16 14 15 15 149 12
1508 l-3 1491 -22 85 c-28 106 -105 264 -171 351 -224 294 -613 494 -1050 538
-97 10 -269 12 -336 4z"/>
<path d="M1280 9279 c-115 -11 -264 -44 -389 -86 -454 -151 -785 -496 -840
-874 -33 -234 -46 -443 -46 -769 1 -421 26 -725 84 -986 77 -354 397 -923
1170 -2082 97 -147 203 -311 235 -364 129 -220 221 -446 262 -643 18 -84 19
-148 19 -965 l0 -875 -27 -50 c-99 -187 -335 -232 -491 -94 -26 22 -58 65 -74
97 l-28 57 -3 1164 c-2 832 -5 1168 -13 1178 -17 20 -1071 19 -1088 -1 -9 -10
-11 -332 -9 -1247 l3 -1234 28 -88 c77 -246 227 -436 472 -599 348 -231 822
-316 1276 -228 467 90 859 376 1005 733 66 162 64 130 64 1165 0 959 -3 1053
-41 1281 -53 318 -128 487 -399 901 -81 124 -187 290 -235 370 -48 80 -157
254 -242 388 -356 562 -493 797 -622 1064 -123 253 -159 375 -196 663 -46 352
-32 1074 23 1198 48 108 148 177 268 185 106 7 163 -15 241 -93 100 -100 93
-10 93 -1191 0 -916 2 -1024 16 -1038 14 -14 77 -16 542 -16 290 0 533 4 540
8 10 7 12 219 10 1078 l-3 1069 -33 95 c-18 52 -49 124 -68 160 -249 457 -864
731 -1504 669z"/>
<path d="M6205 9188 c-3 -7 -4 -1912 -3 -4233 l3 -4220 925 -3 c984 -3 1003
-2 1155 45 165 52 298 134 425 262 171 172 273 382 300 620 14 120 13 2669 0
2781 -43 351 -244 646 -550 808 -41 22 -96 48 -122 57 -58 21 -61 39 -10 55
63 21 204 98 273 150 190 143 318 337 387 589 l27 96 0 975 c0 897 -1 982 -18
1063 -50 245 -159 450 -332 622 -175 175 -393 288 -634 330 -115 20 -1819 22
-1826 3z m1438 -838 c74 -28 167 -113 201 -183 14 -29 30 -81 36 -117 14 -90
14 -1972 -1 -2060 -28 -176 -155 -296 -340 -321 -102 -14 -207 -8 -220 12 -5
8 -9 557 -9 1346 0 1258 1 1333 18 1343 31 19 248 6 315 -20z m49 -3557 c118
-55 194 -154 218 -283 14 -76 14 -2596 -1 -2676 -22 -123 -105 -230 -217 -282
-52 -25 -70 -27 -205 -30 -106 -3 -152 0 -162 8 -13 11 -15 224 -15 1644 0
1292 3 1635 13 1645 9 9 48 12 157 9 138 -3 148 -5 212 -35z"/>
</g>
</svg>
